<svg version="1.1" id="Layer_1" xmlns="http://www.w3.org/2000/svg" xmlns:xlink="http://www.w3.org/1999/xlink" x="0px" y="0px"
	 width="100%" viewBox="0 0 586 147" enable-background="new 0 0 586 147" xml:space="preserve">
<path fill="#010101" opacity="1.000000" stroke="none" 
	d="
M427.000000,148.000000 
	C286.166656,148.000000 145.833313,147.982590 5.500075,148.094116 
	C1.750579,148.097092 0.890708,147.250961 0.902773,143.499695 
	C1.051784,97.166832 1.035863,50.833241 0.916622,4.500215 
	C0.908944,1.517127 1.518298,0.917806 4.500038,0.919189 
	C197.500000,1.008743 390.500000,1.008743 583.499939,0.919189 
	C586.481689,0.917806 587.090942,1.517140 587.083313,4.500212 
	C586.964355,51.166576 586.964355,97.833427 587.083313,144.499786 
	C587.090881,147.482864 586.482666,148.089645 583.499817,148.083038 
	C531.500061,147.967972 479.500000,148.000000 427.000000,148.000000 
z"/>
<path fill="#8980F9" opacity="1.000000" stroke="none" 
	d="
M527.299927,75.307510 
	C522.748047,82.688004 518.796692,90.024467 513.373474,96.394287 
	C505.360748,105.805634 495.164551,110.794167 482.837372,110.834610 
	C433.714111,110.995796 384.590393,111.010109 335.466827,111.071808 
	C334.468781,111.073059 333.469055,111.012070 332.472778,110.942215 
	C318.688599,109.975830 313.528381,101.376701 319.721100,89.065887 
	C325.400879,77.774834 331.947205,66.926804 339.282745,56.647537 
	C347.907867,44.561089 360.009003,39.008354 374.905396,39.118710 
	C404.542877,39.338272 434.181946,39.430752 463.820282,39.414501 
	C482.635681,39.404186 501.450653,39.040810 520.266357,38.958008 
	C530.276184,38.913956 536.631836,44.103855 537.383301,52.643452 
	C537.650940,55.684933 537.104614,58.576149 535.533936,61.243675 
	C532.839600,65.819725 530.166260,70.408119 527.299927,75.307510 
z"/>
<path fill="#F1F1F1" opacity="1.000000" stroke="none" 
	d="
M304.870178,86.058731 
	C307.315979,91.883171 309.583282,97.368034 311.939545,103.068115 
	C308.976288,103.237411 306.351685,103.414536 303.724426,103.532112 
	C297.126343,103.827377 295.153534,102.623230 293.080444,96.355324 
	C292.073914,93.312035 290.263641,92.116554 287.186493,92.163116 
	C281.693604,92.246239 276.198486,92.197899 270.704407,92.177673 
	C266.948212,92.163849 264.280060,93.634605 263.317261,97.478584 
	C262.197815,101.948158 259.218567,103.549767 254.793564,103.358604 
	C247.641998,103.049690 240.483139,102.834328 233.325745,102.775467 
	C230.759735,102.754364 229.959167,101.937050 229.929153,99.315697 
	C229.742371,83.004066 229.319427,66.695282 229.089661,50.383942 
	C229.007812,44.572876 230.900146,42.972099 237.134186,42.993118 
	C242.856934,43.012413 244.675552,44.648293 244.687439,50.376328 
	C244.715393,63.857883 244.599686,77.339745 244.537491,90.821465 
	C244.525162,93.495689 244.479584,96.172508 246.654266,99.139297 
	C250.520874,90.604279 254.311172,82.455261 257.913300,74.223892 
	C261.363342,66.340088 264.678894,58.395687 267.937439,50.430424 
	C270.181427,44.945213 274.151306,42.686722 280.022766,42.811028 
	C285.628723,42.929710 288.241913,46.186714 290.146576,50.836578 
	C294.921783,62.494083 299.834259,74.095337 304.870178,86.058731 
z"/>
<path fill="#F2F2F2" opacity="1.000000" stroke="none" 
	d="
M49.848946,103.436584 
	C44.454708,103.809761 42.862694,101.273994 42.852928,96.504005 
	C42.819180,80.014198 43.523651,63.520325 42.692894,47.033039 
	C42.626331,45.712097 42.621204,44.408474 44.089615,43.595345 
	C50.220051,40.200626 59.615860,43.160004 62.580845,49.583641 
	C66.880669,58.899208 71.073677,68.264084 75.811714,78.709000 
	C80.169250,69.103615 84.323593,60.522533 87.975822,51.732815 
	C91.603935,43.001137 98.569145,39.956924 107.215904,43.701855 
	C109.237152,44.577267 109.392014,46.028145 109.278870,47.723568 
	C108.212395,63.703983 109.207466,79.694687 109.011574,95.679016 
	C108.927284,102.556580 103.594009,105.811043 97.264626,102.817764 
	C94.778076,101.641838 95.030060,99.355896 95.025749,97.209053 
	C95.007477,88.096474 95.017990,78.983826 95.017990,68.799423 
	C89.333939,75.651871 87.353302,83.234039 84.009422,90.090195 
	C82.921440,92.320953 82.273895,94.836220 80.212608,96.429138 
	C76.548515,99.260674 71.098213,97.669487 68.999794,93.074753 
	C66.104683,86.735558 63.406586,80.306549 60.534355,73.956604 
	C59.906094,72.567635 59.810852,70.064476 57.846581,70.367966 
	C55.276497,70.765060 56.381153,73.350311 56.369587,74.980827 
	C56.318806,82.141556 56.380585,89.305367 56.550583,96.464531 
	C56.656075,100.907288 55.035961,103.530579 49.848946,103.436584 
z"/>
<path fill="#F2F2F2" opacity="1.000000" stroke="none" 
	d="
M222.228851,88.120201 
	C217.635834,97.350975 209.727264,101.239868 200.518234,102.498070 
	C192.797623,103.552933 184.952850,103.894379 177.151154,104.099380 
	C170.715942,104.268486 167.747299,101.438667 168.153397,94.973015 
	C169.124084,79.517181 168.868134,64.063774 168.832184,48.604973 
	C168.825104,45.561310 170.026810,43.065540 173.245224,43.159176 
	C183.675232,43.462624 194.188889,42.025570 204.516968,44.771935 
	C217.717743,48.282188 225.951767,58.800541 225.669662,72.377571 
	C225.559418,77.683052 225.026062,82.973991 222.228851,88.120201 
z"/>
<path fill="#F3F3F3" opacity="1.000000" stroke="none" 
	d="
M161.027924,91.475822 
	C164.754578,94.127586 164.266815,97.525185 163.330521,100.721687 
	C162.396011,103.912071 159.307556,103.240234 156.946793,103.260223 
	C145.117188,103.360397 133.285873,103.251060 121.456093,103.340340 
	C117.464020,103.370468 115.827599,101.796829 115.865242,97.674187 
	C116.012848,81.512466 116.023148,65.347649 115.863945,49.186153 
	C115.818970,44.620403 117.629410,42.958412 122.087196,43.017204 
	C133.581482,43.168797 145.080414,43.154701 156.574936,43.008152 
	C160.987839,42.951893 162.912292,44.722507 162.990128,49.160004 
	C163.068298,53.616440 161.089859,55.671326 156.759857,55.623688 
	C150.598785,55.555912 144.438049,55.452747 138.277557,55.342514 
	C132.209915,55.233936 131.201752,56.251457 130.945145,61.349838 
	C130.671738,66.781357 133.798782,67.207489 137.971802,67.042709 
	C143.296127,66.832489 148.639221,67.097397 153.963593,66.887764 
	C158.740875,66.699677 159.872574,69.392517 160.026535,73.429680 
	C160.187561,77.652267 158.493958,79.532127 154.149429,79.355446 
	C148.493073,79.125435 142.822037,79.284081 137.159027,79.180832 
	C133.218933,79.109001 130.845627,80.357628 130.862381,84.861740 
	C130.878952,89.317444 132.825043,91.190994 137.207962,91.148621 
	C145.033295,91.072945 152.860428,91.182472 161.027924,91.475822 
z"/>
<path fill="#F2F1F9" opacity="1.000000" stroke="none" 
	d="
M396.805725,52.424225 
	C397.038544,51.992298 397.158691,51.685158 397.134064,51.522102 
	C397.200836,50.997898 397.364227,50.674118 397.801270,50.193764 
	C397.991974,49.994122 398.000000,50.000000 397.996155,49.996376 
	C398.521393,49.369106 398.914825,48.604210 400.054199,48.227325 
	C400.355682,48.152523 400.679504,48.202724 400.832581,48.144291 
	C401.821960,47.332355 402.856354,47.515244 403.834930,47.516838 
	C427.600067,47.555584 451.365387,47.412697 475.547058,47.851173 
	C479.117065,49.590836 479.712646,52.263859 478.820618,55.202930 
	C477.894714,58.253620 475.144440,58.028465 472.595490,58.023121 
	C466.123810,58.009541 463.999207,59.763615 464.302612,66.248199 
	C464.691650,74.562202 464.920105,82.866638 464.731384,91.178398 
	C464.607788,96.622513 462.564789,98.253212 457.203064,97.899734 
	C453.563751,97.659790 451.774872,95.941727 451.814728,92.212090 
	C451.893036,84.889854 451.861176,77.566422 451.870026,70.243484 
	C451.884277,58.445023 451.430573,58.009167 439.476471,58.016685 
	C431.820648,58.021503 424.164642,57.954327 416.509064,57.989204 
	C410.365601,58.017193 408.830872,60.540936 411.433411,66.862213 
	C417.868286,68.077812 424.059662,67.162308 430.590637,67.855743 
	C433.219849,69.912941 434.512848,72.001862 433.371063,75.006279 
	C432.230011,78.008720 429.694519,77.928009 427.180481,77.934692 
	C423.371490,77.944817 419.558746,78.039673 415.754517,77.903923 
	C412.122894,77.774330 410.049438,79.084755 410.065765,82.980286 
	C410.081665,86.765923 411.934235,88.276024 415.665833,88.166901 
	C420.960724,88.012070 426.264252,88.057449 431.562073,88.142296 
	C433.953644,88.180588 436.307404,88.668297 436.923187,91.538261 
	C437.552338,94.470497 436.829102,96.802773 433.295898,97.926163 
	C422.619171,98.991562 412.261169,98.295464 401.471252,98.230141 
	C398.894257,97.302864 397.788300,95.698120 397.107056,93.296875 
	C395.939819,83.428314 396.744354,73.843269 396.529633,64.273781 
	C396.444275,60.470566 396.433777,56.661526 396.805725,52.424225 
z"/>
<path fill="#F3F3F8" opacity="1.000000" stroke="none" 
	d="
M391.380859,89.022415 
	C386.312592,100.444618 369.526245,100.145859 361.673187,93.582703 
	C359.633911,91.878395 359.195068,89.629349 360.564087,87.296204 
	C361.895844,85.026588 363.593201,83.229118 366.638367,84.309944 
	C368.835480,85.089775 371.012817,85.935570 373.240082,86.617737 
	C376.488068,87.612526 378.634583,86.297516 378.912598,82.990982 
	C379.399841,77.196030 379.777832,71.368271 379.720337,65.559021 
	C379.678406,61.325268 377.310272,58.763870 372.723175,58.874577 
	C370.893066,58.918747 369.031158,59.073196 367.235840,58.815041 
	C364.093109,58.363148 362.848541,56.330658 362.823212,53.180756 
	C362.797852,50.033028 364.351013,48.374310 367.242767,48.285583 
	C373.901917,48.081257 380.573822,47.982037 387.231232,48.169968 
	C390.304626,48.256733 393.025665,50.026993 392.929901,53.359051 
	C392.591400,65.132576 394.431549,77.000931 391.380859,89.022415 
z"/>
<path fill="#8A84E5" opacity="1.000000" stroke="none" 
	d="
M475.689575,47.801590 
	C451.283661,48.135052 426.603638,48.150757 401.454590,48.126160 
	C401.927673,46.807087 403.319214,47.005112 404.631104,47.004692 
	C427.423737,46.997410 450.216400,46.993645 473.009003,47.018402 
	C473.811310,47.019272 474.613281,47.321865 475.689575,47.801590 
z"/>
<path fill="#8C85E8" opacity="1.000000" stroke="none" 
	d="
M396.742889,52.289787 
	C397.050354,65.346680 397.062134,78.701065 397.020203,92.519974 
	C396.697449,92.576424 396.196930,92.170586 396.192963,91.759972 
	C396.067383,78.701363 395.536407,65.638962 396.742889,52.289787 
z"/>
<path fill="#8D84DC" opacity="1.000000" stroke="none" 
	d="
M401.328186,98.312447 
	C411.364685,98.011551 421.699524,97.997246 432.496643,98.032104 
	C430.418396,99.920258 427.516693,98.962639 424.815643,98.940742 
	C417.086609,98.878067 409.342072,99.526741 401.328186,98.312447 
z"/>
<path fill="#8B85DD" opacity="1.000000" stroke="none" 
	d="
M430.693298,67.809982 
	C424.783051,67.847046 418.571930,68.624756 412.067719,67.363098 
	C417.960144,67.183601 424.209351,66.463127 430.693298,67.809982 
z"/>
<path fill="#8C85E8" opacity="1.000000" stroke="none" 
	d="
M400.002258,48.139664 
	C399.749054,48.679844 399.142456,49.207176 398.264099,49.863628 
	C398.114899,48.989414 398.486206,48.206875 400.002258,48.139664 
z"/>
<path fill="#8C85E8" opacity="1.000000" stroke="none" 
	d="
M397.757294,50.154755 
	C397.843414,50.331154 397.694824,50.668186 397.327820,51.182129 
	C397.247162,51.011158 397.384888,50.663273 397.757294,50.154755 
z"/>
<path fill="#0B0B0B" opacity="1.000000" stroke="none" 
	d="
M272.255829,74.611115 
	C274.346497,69.342201 276.302460,64.462242 278.633850,58.645683 
	C280.930115,65.277367 282.917633,71.020470 284.907562,76.762733 
	C285.613312,78.799225 285.057800,79.874535 282.739960,79.946335 
	C280.761139,80.007645 278.791138,80.324028 276.814819,80.500763 
	C272.678436,80.870644 270.866241,79.239334 272.255829,74.611115 
z"/>
<path fill="#040404" opacity="1.000000" stroke="none" 
	d="
M194.662018,90.929184 
	C192.888336,90.958618 191.556702,91.003891 190.225479,90.994179 
	C184.852112,90.954979 183.869263,89.891098 183.853729,84.531242 
	C183.831116,76.729004 184.475403,68.922295 183.390915,61.123932 
	C183.004822,58.347633 184.333344,56.687740 187.417877,55.902790 
	C198.345734,53.121868 208.169632,58.878128 210.422974,69.715744 
	C212.678345,80.563110 206.497925,89.117966 194.662018,90.929184 
z"/>
</svg>